<?xml version="1.0" encoding="UTF-8"?>
<svg id="Layer_2" data-name="Layer 2" xmlns="http://www.w3.org/2000/svg" viewBox="0 0 101.77 135.16">
  <defs>
    <style>
      .cls-1 {
        fill: #72a7da;
      }

      .cls-2 {
        fill: #abd2f0;
      }

      .cls-3 {
        fill: #1a2951;
      }

      .cls-4 {
        fill: #7089c0;
      }

      .cls-5 {
        fill: #010101;
      }
    </style>
  </defs>
  <g id="Layer_1-2" data-name="Layer 1">
    <g>
      <path class="cls-3" d="M56.36,22.71c14.27,33.66,28.68,67.24,42.75,100.99-4.64,1.57-10.03,2.09-14.92,2.95l-9.17-23.94c-6.38-.43-13.23.09-19.71-.09v-9.6h15.96c-5.63-14.62-11.04-29.4-16.91-43.89-5.56,14.66-11.24,29.29-16.82,43.89h16.17c.03,9.45,0,.01.03,9.45l-19.83.05c-3.07,8.01-6.18,16-9.18,24.04-5-.75-9.96-1.74-14.92-2.76,14.75-35.23,29.68-70.39,44.6-105.55.67,1.48,1.31,2.97,1.95,4.46Z"/>
      <path class="cls-2" d="M47.43,19.85c.89-.44,1.98.2,2.94.1-3.01,4.74-8.78,7.21-12.11,11.87-9.98,11.42-22.66,34.73-10.02,48.17-3.17,7.5-6.34,15.01-9.5,22.52-28.02-25.36.3-70.91,28.69-82.65Z"/>
      <path class="cls-4" d="M99.11,123.69c.9,2.14,1.91,4.27,2.66,6.46-30.92,6.09-63.85,7.3-94.62-.15.82-2.1,1.79-4.14,2.66-6.22,29.29,6.36,60.2,7.12,89.3-.1Z"/>
      <path class="cls-2" d="M84.01,87.69c-2.68-6.34-5.47-12.73-8.17-19.1,8.04-9.3,13.14-21.41,14.92-33.54,5.59,16.61,3.52,37.81-6.75,52.63Z"/>
      <path class="cls-4" d="M47.52,19.76v.1C23.01,30.53-1.18,63.91,10.28,91.11-19.65,69.55,22.88,25.56,47.52,19.76Z"/>
      <path class="cls-1" d="M47.43,19.76l-.44-.18-10.87-1.2,14.25-1.66-8.93-11.3,11.4,8.83,1.61-14.25,1.62,14.34,11.3-8.93-8.93,11.3,14.25,1.52c-4.19,1.01-9.65,1.03-14.25,1.71l8.93,11.3-11.02-8.55c-.63-1.49-1.28-2.99-1.95-4.46-.6,1.46-1.23,2.92-1.85,4.37l-10.97,8.64c2.44-3.83,6.21-7.46,8.79-11.3-.96.1-2.06-.53-2.94-.1v-.1Z"/>
      <path class="cls-2" d="M65.58,78.09c1.9,4.97,3.89,9.91,5.7,14.92h-15.96v9.45c4.47,0,8.93.14,13.4.14-3.88,2.76-8.18,5.03-12.73,6.46,0-1.14,0-2.28,0-3.42h-.73c0,1.3,0,2.34,0,3.64l-1.44.51c0-1.36-.18-2.81-.18-4.17l-.78.02c0,1.49,0,2.98,0,4.47-7.12,1.66-14.65,1.8-21.66-.48.91-2.37,1.75-4.78,2.72-7.13l19.83-.05-.03-9.44s-16.17-.01-16.17-.01c.88-2.12,1.55-4.42,2.57-6.46,4.28.53,9.01-.37,13.04-1.79.39,1.39-1.08,2.33,1.38,1.21,0,0-.46.49-.46.49.13-.02,1.07-.5,1.07-.34l-.04,2.73.28.2c-.07-.5.27-2.93-.38-3.12.64-.07.92-1.77.97-2.32,3.51-1.3,6.41-3.12,9.6-5.51Z"/>
      <path class="cls-2" d="M55.02,84.08c0,.47.1,1.15.1,1.62l-1.13-.1c.05-.37-.12-.93.1-1.24l.93-.28Z"/>
      <g>
        <path class="cls-5" d="M54.75,120.46v-2h-.67v2.04c1.4,1.91,2.32,2.34,1.88,5.2-.2.88-3.11.62-3.11.12v-2.42h1.24v1.9h.67c.34-2.92-.85-2.36-1.91-4.7-.04-.37-.06-2.38.02-2.65.19-.62,2.87-.69,3.1.1.06.2.04,2.22-.02,2.31-.13.19-.93.05-1.19.09Z"/>
        <path class="cls-5" d="M55.98,60.71h-1.24v-2h-.67v2.14c1.39,1.74,2.3,2.42,1.88,5.11-.18.87-2.89.74-3.11.12,0,0,0-2.42,0-2.42h1.24v2c1.08.34.6-1.37.66-1.94-.1-.6-1.67-1.93-1.85-2.52-.08-.24-.09-2.75-.02-2.98.4-.51,2.84-.7,3.12.17,0,0,0,2.33,0,2.33Z"/>
        <g>
          <path class="cls-5" d="M55.72,112.98c0,.17-.04.3-.12.41-.08.11-.19.16-.32.16h-1.68c-.13,0-.23-.05-.32-.16-.08-.11-.12-.24-.12-.41v-7.42h.55v7.36h1.46v-7.36h.55v7.42Z"/>
          <path class="cls-5" d="M55.28,113.91h-1.68c-.24,0-.45-.11-.6-.3-.13-.17-.2-.38-.2-.63v-7.78h1.26v7.36h.75v-7.36h1.26v7.78c0,.25-.07.46-.2.63-.15.19-.36.29-.6.29Z"/>
        </g>
        <g>
          <path class="cls-5" d="M54.71,78.09h-.55v-7.99h.55v7.99Z"/>
          <rect class="cls-5" x="53.81" y="69.75" width="1.26" height="8.7"/>
        </g>
        <path class="cls-5" d="M55.1,81.64c.39.03.83.25.92.67-.03,1.03.05,2.07.02,3.11,0,.23-.12.44-.33.53-.07.03-.16.03-.21.08.18.04.36.09.45.27.01.02.07.18.07.19v3.88l-.03.03h-1.16s-.03-.03-.05-.02v-3.89l-.03-.03h-.66v3.89s-.05.05-.05.05h-1.18l-.03-.03v-8.67s.03-.03.02-.05h2.24ZM54.79,82.52h-.69v3.05h.69v-3.05Z"/>
      </g>
    </g>
  </g>
</svg>